<svg width="84" height="48" viewBox="0 0 84 48" fill="none" xmlns="http://www.w3.org/2000/svg">
<rect width="84" height="48" fill="#6C7A91"/>
<path d="M35.9829 9.16064C35.9829 9.55094 35.922 9.89648 35.8003 10.1973C35.6785 10.498 35.5013 10.7523 35.2686 10.96C35.0358 11.1641 34.7493 11.3198 34.4092 11.4272C34.0726 11.5347 33.6751 11.5884 33.2168 11.5884H32.6367V13.8066C32.6367 13.8424 32.6242 13.8747 32.5991 13.9033C32.5776 13.932 32.54 13.9552 32.4863 13.9731C32.4326 13.991 32.361 14.0054 32.2715 14.0161C32.182 14.0269 32.0674 14.0322 31.9277 14.0322C31.7917 14.0322 31.6771 14.0269 31.584 14.0161C31.4945 14.0054 31.4229 13.991 31.3691 13.9731C31.3154 13.9552 31.2778 13.932 31.2563 13.9033C31.2349 13.8747 31.2241 13.8424 31.2241 13.8066V7.55469C31.2241 7.38639 31.2671 7.26107 31.353 7.17871C31.4425 7.09277 31.5589 7.0498 31.7021 7.0498H33.3403C33.505 7.0498 33.6608 7.05697 33.8076 7.07129C33.958 7.08203 34.137 7.10889 34.3447 7.15186C34.5524 7.19124 34.7619 7.26644 34.9731 7.37744C35.188 7.48844 35.3706 7.62988 35.521 7.80176C35.6714 7.97005 35.786 8.16878 35.8647 8.39795C35.9435 8.62354 35.9829 8.87777 35.9829 9.16064ZM34.5059 9.2627C34.5059 9.01921 34.4629 8.81868 34.377 8.66113C34.291 8.50358 34.1854 8.38721 34.0601 8.31201C33.9347 8.23682 33.8022 8.19027 33.6626 8.17236C33.5265 8.15088 33.3851 8.14014 33.2383 8.14014H32.6367V10.498H33.2705C33.4961 10.498 33.6841 10.4676 33.8345 10.4067C33.9884 10.3459 34.1138 10.2617 34.2104 10.1543C34.3071 10.0433 34.3805 9.9126 34.4307 9.76221C34.4808 9.60824 34.5059 9.44173 34.5059 9.2627ZM41.1982 13.4468C41.1982 13.5506 41.1929 13.6383 41.1821 13.71C41.175 13.778 41.1624 13.8335 41.1445 13.8765C41.1266 13.9194 41.1034 13.9517 41.0747 13.9731C41.0496 13.991 41.021 14 40.9888 14H37.4976C37.3794 14 37.2791 13.966 37.1968 13.8979C37.118 13.8263 37.0786 13.7118 37.0786 13.5542V7.49561C37.0786 7.33805 37.118 7.22526 37.1968 7.15723C37.2791 7.08561 37.3794 7.0498 37.4976 7.0498H40.9673C40.9995 7.0498 41.0282 7.05876 41.0532 7.07666C41.0783 7.09456 41.0998 7.12679 41.1177 7.17334C41.1356 7.21631 41.1481 7.2736 41.1553 7.34521C41.166 7.41325 41.1714 7.50098 41.1714 7.6084C41.1714 7.70866 41.166 7.7946 41.1553 7.86621C41.1481 7.93424 41.1356 7.98975 41.1177 8.03271C41.0998 8.07568 41.0783 8.10791 41.0532 8.12939C41.0282 8.1473 40.9995 8.15625 40.9673 8.15625H38.4858V9.85352H40.5859C40.6182 9.85352 40.6468 9.86426 40.6719 9.88574C40.7005 9.90365 40.7238 9.93408 40.7417 9.97705C40.7596 10.0164 40.7721 10.0719 40.7793 10.1436C40.79 10.2116 40.7954 10.2957 40.7954 10.396C40.7954 10.4998 40.79 10.5858 40.7793 10.6538C40.7721 10.7218 40.7596 10.7773 40.7417 10.8203C40.7238 10.8597 40.7005 10.8883 40.6719 10.9062C40.6468 10.9242 40.6182 10.9331 40.5859 10.9331H38.4858V12.8936H40.9888C41.021 12.8936 41.0496 12.9043 41.0747 12.9258C41.1034 12.9437 41.1266 12.9741 41.1445 13.0171C41.1624 13.0601 41.175 13.1174 41.1821 13.189C41.1929 13.257 41.1982 13.3429 41.1982 13.4468ZM47.606 13.8174C47.606 13.8568 47.5988 13.8908 47.5845 13.9194C47.5701 13.9445 47.5361 13.966 47.4824 13.9839C47.4287 14.0018 47.3499 14.0143 47.2461 14.0215C47.1423 14.0286 47.0008 14.0322 46.8218 14.0322C46.6714 14.0322 46.5514 14.0286 46.4619 14.0215C46.3724 14.0143 46.3008 14.0018 46.2471 13.9839C46.1969 13.9624 46.1611 13.9373 46.1396 13.9087C46.1182 13.8765 46.1003 13.8389 46.0859 13.7959L45.4629 12.2437C45.3877 12.0682 45.3143 11.9124 45.2427 11.7764C45.1711 11.6403 45.0905 11.5275 45.001 11.438C44.915 11.3449 44.8148 11.2751 44.7002 11.2285C44.5856 11.182 44.4531 11.1587 44.3027 11.1587H43.8623V13.8066C43.8623 13.8424 43.8498 13.8747 43.8247 13.9033C43.8032 13.932 43.7656 13.9552 43.7119 13.9731C43.6582 13.991 43.5866 14.0054 43.4971 14.0161C43.4076 14.0269 43.293 14.0322 43.1533 14.0322C43.0173 14.0322 42.9027 14.0269 42.8096 14.0161C42.7201 14.0054 42.6484 13.991 42.5947 13.9731C42.541 13.9552 42.5034 13.932 42.4819 13.9033C42.4604 13.8747 42.4497 13.8424 42.4497 13.8066V7.49561C42.4497 7.33805 42.4891 7.22526 42.5679 7.15723C42.6502 7.08561 42.7505 7.0498 42.8687 7.0498H44.668C44.8506 7.0498 45.001 7.05339 45.1191 7.06055C45.2373 7.06771 45.3447 7.07666 45.4414 7.0874C45.7207 7.12679 45.9714 7.19482 46.1934 7.2915C46.4189 7.38818 46.6087 7.5153 46.7627 7.67285C46.9202 7.82682 47.0402 8.01123 47.1226 8.22607C47.2049 8.43734 47.2461 8.68083 47.2461 8.95654C47.2461 9.18929 47.2157 9.40234 47.1548 9.5957C47.0975 9.78548 47.0116 9.95557 46.897 10.106C46.7824 10.2563 46.641 10.387 46.4727 10.498C46.3044 10.609 46.1128 10.6986 45.8979 10.7666C46.0018 10.8167 46.0985 10.8776 46.188 10.9492C46.2811 11.0208 46.367 11.1086 46.4458 11.2124C46.5282 11.3127 46.6051 11.429 46.6768 11.5615C46.7484 11.6904 46.8182 11.8372 46.8862 12.002L47.4717 13.3716C47.5254 13.5076 47.5612 13.6079 47.5791 13.6724C47.597 13.7332 47.606 13.7816 47.606 13.8174ZM45.7852 9.10156C45.7852 8.8724 45.7332 8.67904 45.6294 8.52148C45.5256 8.36393 45.3555 8.25293 45.1191 8.18848C45.0475 8.17057 44.9652 8.15625 44.8721 8.14551C44.7826 8.13477 44.6572 8.12939 44.4961 8.12939H43.8623V10.1006H44.582C44.7826 10.1006 44.958 10.0773 45.1084 10.0308C45.2588 9.98063 45.3841 9.9126 45.4844 9.82666C45.5846 9.73714 45.6598 9.63151 45.71 9.50977C45.7601 9.38802 45.7852 9.25195 45.7852 9.10156ZM52.6602 11.916C52.6602 12.2812 52.5921 12.6017 52.4561 12.8774C52.32 13.1532 52.1356 13.3841 51.9028 13.5703C51.6701 13.7529 51.3979 13.8908 51.0864 13.9839C50.7749 14.077 50.4419 14.1235 50.0874 14.1235C49.8475 14.1235 49.6237 14.1038 49.416 14.0645C49.2119 14.0251 49.0311 13.9785 48.8735 13.9248C48.716 13.8675 48.5835 13.8084 48.4761 13.7476C48.3722 13.6867 48.297 13.633 48.2505 13.5864C48.2039 13.5399 48.1699 13.4736 48.1484 13.3877C48.1305 13.2982 48.1216 13.1711 48.1216 13.0063C48.1216 12.8953 48.1252 12.8022 48.1323 12.7271C48.1395 12.6519 48.1502 12.591 48.1646 12.5444C48.1825 12.4979 48.2039 12.4657 48.229 12.4478C48.2576 12.4263 48.2899 12.4155 48.3257 12.4155C48.3758 12.4155 48.4456 12.446 48.5352 12.5068C48.6283 12.5641 48.7464 12.6286 48.8896 12.7002C49.0329 12.7718 49.203 12.8381 49.3999 12.8989C49.6004 12.9562 49.8314 12.9849 50.0928 12.9849C50.2646 12.9849 50.4186 12.9652 50.5547 12.9258C50.6908 12.8828 50.8053 12.8237 50.8984 12.7485C50.9951 12.6733 51.0685 12.5802 51.1187 12.4692C51.1688 12.3582 51.1938 12.2347 51.1938 12.0986C51.1938 11.9411 51.1509 11.8068 51.0649 11.6958C50.979 11.5812 50.8662 11.481 50.7266 11.395C50.5905 11.3055 50.4347 11.2231 50.2593 11.1479C50.0838 11.0692 49.903 10.9868 49.7168 10.9009C49.5306 10.8149 49.3498 10.7183 49.1743 10.6108C48.9989 10.4998 48.8413 10.3691 48.7017 10.2188C48.5656 10.0648 48.4546 9.88395 48.3687 9.67627C48.2827 9.46859 48.2397 9.21973 48.2397 8.92969C48.2397 8.59668 48.3006 8.30485 48.4224 8.0542C48.5477 7.79997 48.7142 7.59049 48.9219 7.42578C49.1331 7.25749 49.3802 7.13216 49.6631 7.0498C49.9495 6.96745 50.2521 6.92627 50.5708 6.92627C50.7355 6.92627 50.9002 6.9388 51.0649 6.96387C51.2297 6.98893 51.3836 7.02295 51.5269 7.06592C51.6701 7.10889 51.7972 7.15723 51.9082 7.21094C52.0192 7.26465 52.0926 7.30941 52.1284 7.34521C52.1642 7.38102 52.1875 7.41146 52.1982 7.43652C52.2126 7.46159 52.2233 7.49561 52.2305 7.53857C52.2412 7.57796 52.2484 7.62988 52.252 7.69434C52.2555 7.75521 52.2573 7.83219 52.2573 7.92529C52.2573 8.02913 52.2537 8.11686 52.2466 8.18848C52.243 8.26009 52.234 8.31917 52.2197 8.36572C52.209 8.41227 52.1911 8.44629 52.166 8.46777C52.1445 8.48926 52.1141 8.5 52.0747 8.5C52.0353 8.5 51.9727 8.47493 51.8867 8.4248C51.8008 8.37467 51.6951 8.32096 51.5698 8.26367C51.4445 8.2028 51.2995 8.14909 51.1348 8.10254C50.9701 8.05241 50.7892 8.02734 50.5923 8.02734C50.4383 8.02734 50.304 8.04704 50.1895 8.08643C50.0749 8.12223 49.9782 8.17415 49.8994 8.24219C49.8242 8.30664 49.7669 8.38542 49.7275 8.47852C49.6917 8.57161 49.6738 8.67008 49.6738 8.77393C49.6738 8.9279 49.715 9.06217 49.7974 9.17676C49.8833 9.28776 49.9961 9.38802 50.1357 9.47754C50.279 9.56348 50.4401 9.64583 50.6191 9.72461C50.7982 9.7998 50.9808 9.88037 51.167 9.96631C51.3532 10.0522 51.5358 10.1507 51.7148 10.2617C51.8939 10.3691 52.0532 10.4998 52.1929 10.6538C52.3325 10.8042 52.4453 10.9832 52.5312 11.1909C52.6172 11.395 52.6602 11.6367 52.6602 11.916ZM59.9917 10.4443C59.9917 11.0208 59.9201 11.5365 59.7769 11.9912C59.6336 12.446 59.4206 12.8327 59.1377 13.1514C58.8548 13.4665 58.5039 13.7082 58.085 13.8765C57.6696 14.0412 57.188 14.1235 56.6401 14.1235C56.0994 14.1235 55.6268 14.0537 55.2222 13.9141C54.8211 13.7708 54.4863 13.5542 54.2178 13.2642C53.9492 12.9741 53.7469 12.6053 53.6108 12.1577C53.4784 11.7101 53.4121 11.1802 53.4121 10.5679C53.4121 10.0057 53.4837 9.50081 53.627 9.05322C53.7702 8.60205 53.9832 8.21891 54.2661 7.90381C54.549 7.5887 54.8981 7.34701 55.3135 7.17871C55.7324 7.01042 56.2176 6.92627 56.769 6.92627C57.2954 6.92627 57.7591 6.99609 58.1602 7.13574C58.5648 7.27539 58.9014 7.49023 59.1699 7.78027C59.4421 8.07031 59.6462 8.43734 59.7822 8.88135C59.9219 9.32178 59.9917 9.84277 59.9917 10.4443ZM58.5093 10.5195C58.5093 10.1543 58.4806 9.82308 58.4233 9.52588C58.366 9.2251 58.2676 8.96908 58.1279 8.75781C57.9919 8.54297 57.8092 8.37826 57.5801 8.26367C57.3509 8.14551 57.0645 8.08643 56.7207 8.08643C56.3734 8.08643 56.0833 8.15267 55.8506 8.28516C55.6178 8.41406 55.4299 8.58773 55.2866 8.80615C55.1434 9.02458 55.0413 9.2806 54.9805 9.57422C54.9232 9.86426 54.8945 10.1722 54.8945 10.498C54.8945 10.8776 54.9232 11.2196 54.9805 11.5239C55.0378 11.8247 55.1344 12.0825 55.2705 12.2974C55.4066 12.5122 55.5892 12.6769 55.8184 12.7915C56.0475 12.9025 56.3358 12.958 56.6831 12.958C57.0304 12.958 57.3205 12.8936 57.5532 12.7646C57.786 12.6357 57.974 12.4603 58.1172 12.2383C58.2604 12.0163 58.3607 11.7585 58.418 11.4648C58.4788 11.1676 58.5093 10.8525 58.5093 10.5195ZM66.915 13.5059C66.915 13.5882 66.9007 13.6616 66.8721 13.7261C66.8434 13.7905 66.804 13.8442 66.7539 13.8872C66.7074 13.9302 66.6501 13.9624 66.582 13.9839C66.5176 14.0018 66.4513 14.0107 66.3833 14.0107H65.7817C65.6564 14.0107 65.5472 13.9982 65.4541 13.9731C65.3646 13.9481 65.2804 13.9033 65.2017 13.8389C65.1265 13.7708 65.0531 13.6813 64.9814 13.5703C64.9098 13.4557 64.8293 13.3089 64.7397 13.1299L63.0103 9.88037C62.91 9.68701 62.8079 9.47933 62.7041 9.25732C62.6003 9.03174 62.5072 8.81331 62.4248 8.60205H62.4141C62.4284 8.85986 62.4391 9.11768 62.4463 9.37549C62.4535 9.62972 62.457 9.8929 62.457 10.165V13.8013C62.457 13.8371 62.4463 13.8693 62.4248 13.8979C62.4069 13.9266 62.3729 13.9517 62.3228 13.9731C62.2762 13.991 62.2118 14.0054 62.1294 14.0161C62.047 14.0269 61.9414 14.0322 61.8125 14.0322C61.6872 14.0322 61.5833 14.0269 61.501 14.0161C61.4186 14.0054 61.3542 13.991 61.3076 13.9731C61.2611 13.9517 61.2288 13.9266 61.2109 13.8979C61.193 13.8693 61.1841 13.8371 61.1841 13.8013V7.55469C61.1841 7.38639 61.2324 7.26107 61.3291 7.17871C61.4294 7.09277 61.5511 7.0498 61.6943 7.0498H62.4517C62.5877 7.0498 62.7023 7.06234 62.7954 7.0874C62.8885 7.10889 62.9709 7.14648 63.0425 7.2002C63.1177 7.25391 63.1875 7.3291 63.252 7.42578C63.3164 7.51888 63.3826 7.63525 63.4507 7.7749L64.8042 10.3154C64.883 10.4694 64.96 10.6216 65.0352 10.772C65.1139 10.9188 65.1891 11.0674 65.2607 11.2178C65.3324 11.3646 65.4022 11.5096 65.4702 11.6528C65.5382 11.7961 65.6045 11.9393 65.6689 12.0825H65.6743C65.6636 11.8319 65.6546 11.5705 65.6475 11.2983C65.6439 11.0262 65.6421 10.7666 65.6421 10.5195V7.25928C65.6421 7.22347 65.6528 7.19124 65.6743 7.1626C65.6958 7.13395 65.7316 7.10889 65.7817 7.0874C65.8319 7.06592 65.8981 7.0516 65.9805 7.04443C66.0628 7.03369 66.1685 7.02832 66.2974 7.02832C66.4191 7.02832 66.5212 7.03369 66.6035 7.04443C66.6859 7.0516 66.7485 7.06592 66.7915 7.0874C66.8381 7.10889 66.8703 7.13395 66.8882 7.1626C66.9061 7.19124 66.915 7.22347 66.915 7.25928V13.5059ZM74.1284 13.4736C74.1714 13.6025 74.1982 13.7046 74.209 13.7798C74.2197 13.855 74.2054 13.9123 74.166 13.9517C74.1266 13.9875 74.0568 14.009 73.9565 14.0161C73.8563 14.0269 73.7184 14.0322 73.543 14.0322C73.3604 14.0322 73.2171 14.0286 73.1133 14.0215C73.013 14.0179 72.936 14.009 72.8823 13.9946C72.8286 13.9767 72.791 13.9535 72.7695 13.9248C72.748 13.8962 72.7301 13.8586 72.7158 13.812L72.2485 12.4155H69.6382L69.1978 13.7744C69.1834 13.8245 69.1637 13.8675 69.1387 13.9033C69.1172 13.9355 69.0796 13.9624 69.0259 13.9839C68.9757 14.0018 68.9023 14.0143 68.8057 14.0215C68.7126 14.0286 68.589 14.0322 68.4351 14.0322C68.2703 14.0322 68.1414 14.0269 68.0483 14.0161C67.9552 14.0054 67.8908 13.9803 67.855 13.9409C67.8192 13.8979 67.8066 13.8389 67.8174 13.7637C67.8281 13.6885 67.855 13.5882 67.8979 13.4629L70.041 7.29688C70.0625 7.236 70.0876 7.18766 70.1162 7.15186C70.1449 7.11247 70.1896 7.08382 70.2505 7.06592C70.3149 7.04443 70.4027 7.0319 70.5137 7.02832C70.6247 7.02116 70.7715 7.01758 70.9541 7.01758C71.1654 7.01758 71.3337 7.02116 71.459 7.02832C71.5843 7.0319 71.681 7.04443 71.749 7.06592C71.8206 7.08382 71.8708 7.11247 71.8994 7.15186C71.9316 7.19124 71.9585 7.24495 71.98 7.31299L74.1284 13.4736ZM70.938 8.37646H70.9326L69.9497 11.3306H71.9209L70.938 8.37646ZM78.9248 13.4092C78.9248 13.5166 78.9194 13.6079 78.9087 13.6831C78.9015 13.7547 78.889 13.8156 78.8711 13.8657C78.8532 13.9123 78.8299 13.9463 78.8013 13.9678C78.7762 13.9893 78.7458 14 78.71 14H75.5249C75.4067 14 75.3065 13.966 75.2241 13.8979C75.1453 13.8263 75.106 13.7118 75.106 13.5542V7.24316C75.106 7.20736 75.1167 7.17513 75.1382 7.14648C75.1632 7.11784 75.2026 7.09456 75.2563 7.07666C75.3101 7.05876 75.3817 7.04443 75.4712 7.03369C75.5643 7.02295 75.6789 7.01758 75.8149 7.01758C75.9546 7.01758 76.0692 7.02295 76.1587 7.03369C76.2482 7.04443 76.3198 7.05876 76.3735 7.07666C76.4272 7.09456 76.4648 7.11784 76.4863 7.14648C76.5114 7.17513 76.5239 7.20736 76.5239 7.24316V12.8345H78.71C78.7458 12.8345 78.7762 12.8452 78.8013 12.8667C78.8299 12.8846 78.8532 12.9168 78.8711 12.9634C78.889 13.0063 78.9015 13.0654 78.9087 13.1406C78.9194 13.2122 78.9248 13.3018 78.9248 13.4092ZM38.4912 23.4229C38.4912 24.0602 38.4071 24.6063 38.2388 25.061C38.0741 25.5122 37.8359 25.881 37.5244 26.1675C37.2129 26.4539 36.8333 26.6652 36.3857 26.8013C35.9417 26.9338 35.4118 27 34.7959 27H33.1362C33.0181 27 32.9178 26.966 32.8354 26.8979C32.7567 26.8263 32.7173 26.7118 32.7173 26.5542V20.4956C32.7173 20.3381 32.7567 20.2253 32.8354 20.1572C32.9178 20.0856 33.0181 20.0498 33.1362 20.0498H34.9194C35.5389 20.0498 36.0635 20.1232 36.4932 20.27C36.9264 20.4132 37.2899 20.6281 37.5835 20.9146C37.8807 21.1974 38.1063 21.5483 38.2603 21.9673C38.4142 22.3862 38.4912 22.8714 38.4912 23.4229ZM37.0303 23.4712C37.0303 23.1418 36.9909 22.8356 36.9121 22.5527C36.8369 22.2699 36.7134 22.0246 36.5415 21.8169C36.3732 21.6092 36.1548 21.4481 35.8862 21.3335C35.6213 21.2153 35.2721 21.1562 34.8389 21.1562H34.1245V25.8828H34.8604C35.2471 25.8828 35.5729 25.8327 35.8379 25.7324C36.1029 25.6322 36.3231 25.4818 36.4985 25.2812C36.6776 25.0771 36.8101 24.8247 36.896 24.5239C36.9855 24.2231 37.0303 23.8722 37.0303 23.4712ZM45.0923 26.4736C45.1353 26.6025 45.1621 26.7046 45.1729 26.7798C45.1836 26.855 45.1693 26.9123 45.1299 26.9517C45.0905 26.9875 45.0207 27.009 44.9204 27.0161C44.8201 27.0269 44.6823 27.0322 44.5068 27.0322C44.3242 27.0322 44.181 27.0286 44.0771 27.0215C43.9769 27.0179 43.8999 27.009 43.8462 26.9946C43.7925 26.9767 43.7549 26.9535 43.7334 26.9248C43.7119 26.8962 43.694 26.8586 43.6797 26.812L43.2124 25.4155H40.6021L40.1616 26.7744C40.1473 26.8245 40.1276 26.8675 40.1025 26.9033C40.0811 26.9355 40.0435 26.9624 39.9897 26.9839C39.9396 27.0018 39.8662 27.0143 39.7695 27.0215C39.6764 27.0286 39.5529 27.0322 39.3989 27.0322C39.2342 27.0322 39.1053 27.0269 39.0122 27.0161C38.9191 27.0054 38.8547 26.9803 38.8188 26.9409C38.783 26.8979 38.7705 26.8389 38.7812 26.7637C38.792 26.6885 38.8188 26.5882 38.8618 26.4629L41.0049 20.2969C41.0264 20.236 41.0514 20.1877 41.0801 20.1519C41.1087 20.1125 41.1535 20.0838 41.2144 20.0659C41.2788 20.0444 41.3665 20.0319 41.4775 20.0283C41.5885 20.0212 41.7354 20.0176 41.918 20.0176C42.1292 20.0176 42.2975 20.0212 42.4229 20.0283C42.5482 20.0319 42.6449 20.0444 42.7129 20.0659C42.7845 20.0838 42.8346 20.1125 42.8633 20.1519C42.8955 20.1912 42.9224 20.245 42.9438 20.313L45.0923 26.4736ZM41.9019 21.3765H41.8965L40.9136 24.3306H42.8848L41.9019 21.3765ZM49.835 20.6299C49.835 20.7337 49.8296 20.8232 49.8188 20.8984C49.8117 20.9701 49.7992 21.0291 49.7812 21.0757C49.7633 21.1187 49.7401 21.1509 49.7114 21.1724C49.6864 21.1938 49.6577 21.2046 49.6255 21.2046H47.8853V26.8066C47.8853 26.8424 47.8727 26.8747 47.8477 26.9033C47.8262 26.932 47.7886 26.9552 47.7349 26.9731C47.6812 26.991 47.6077 27.0054 47.5146 27.0161C47.4251 27.0269 47.3123 27.0322 47.1763 27.0322C47.0402 27.0322 46.9256 27.0269 46.8325 27.0161C46.743 27.0054 46.6714 26.991 46.6177 26.9731C46.564 26.9552 46.5246 26.932 46.4995 26.9033C46.478 26.8747 46.4673 26.8424 46.4673 26.8066V21.2046H44.7271C44.6912 21.2046 44.6608 21.1938 44.6357 21.1724C44.6107 21.1509 44.5892 21.1187 44.5713 21.0757C44.5534 21.0291 44.5391 20.9701 44.5283 20.8984C44.5212 20.8232 44.5176 20.7337 44.5176 20.6299C44.5176 20.5225 44.5212 20.4312 44.5283 20.356C44.5391 20.2808 44.5534 20.2217 44.5713 20.1787C44.5892 20.1322 44.6107 20.0999 44.6357 20.082C44.6608 20.0605 44.6912 20.0498 44.7271 20.0498H49.6255C49.6577 20.0498 49.6864 20.0605 49.7114 20.082C49.7401 20.0999 49.7633 20.1322 49.7812 20.1787C49.7992 20.2217 49.8117 20.2808 49.8188 20.356C49.8296 20.4312 49.835 20.5225 49.835 20.6299ZM55.48 26.4736C55.5229 26.6025 55.5498 26.7046 55.5605 26.7798C55.5713 26.855 55.557 26.9123 55.5176 26.9517C55.4782 26.9875 55.4084 27.009 55.3081 27.0161C55.2078 27.0269 55.07 27.0322 54.8945 27.0322C54.7119 27.0322 54.5687 27.0286 54.4648 27.0215C54.3646 27.0179 54.2876 27.009 54.2339 26.9946C54.1802 26.9767 54.1426 26.9535 54.1211 26.9248C54.0996 26.8962 54.0817 26.8586 54.0674 26.812L53.6001 25.4155H50.9897L50.5493 26.7744C50.535 26.8245 50.5153 26.8675 50.4902 26.9033C50.4688 26.9355 50.4312 26.9624 50.3774 26.9839C50.3273 27.0018 50.2539 27.0143 50.1572 27.0215C50.0641 27.0286 49.9406 27.0322 49.7866 27.0322C49.6219 27.0322 49.493 27.0269 49.3999 27.0161C49.3068 27.0054 49.2424 26.9803 49.2065 26.9409C49.1707 26.8979 49.1582 26.8389 49.1689 26.7637C49.1797 26.6885 49.2065 26.5882 49.2495 26.4629L51.3926 20.2969C51.4141 20.236 51.4391 20.1877 51.4678 20.1519C51.4964 20.1125 51.5412 20.0838 51.6021 20.0659C51.6665 20.0444 51.7542 20.0319 51.8652 20.0283C51.9762 20.0212 52.123 20.0176 52.3057 20.0176C52.5169 20.0176 52.6852 20.0212 52.8105 20.0283C52.9359 20.0319 53.0326 20.0444 53.1006 20.0659C53.1722 20.0838 53.2223 20.1125 53.251 20.1519C53.2832 20.1912 53.3101 20.245 53.3315 20.313L55.48 26.4736ZM52.2896 21.3765H52.2842L51.3013 24.3306H53.2725L52.2896 21.3765ZM61.4902 24.916C61.4902 25.1631 61.4562 25.3869 61.3882 25.5874C61.3201 25.7879 61.2253 25.9652 61.1035 26.1191C60.9854 26.2731 60.8421 26.4056 60.6738 26.5166C60.5091 26.6276 60.3265 26.7189 60.126 26.7905C59.9255 26.8621 59.7106 26.9159 59.4814 26.9517C59.2559 26.9839 59.0034 27 58.7241 27H56.8765C56.7583 27 56.658 26.966 56.5757 26.8979C56.4969 26.8263 56.4575 26.7118 56.4575 26.5542V20.4956C56.4575 20.3381 56.4969 20.2253 56.5757 20.1572C56.658 20.0856 56.7583 20.0498 56.8765 20.0498H58.6221C59.0482 20.0498 59.408 20.0856 59.7017 20.1572C59.9989 20.2288 60.2477 20.3381 60.4482 20.4849C60.6523 20.6281 60.8081 20.8107 60.9155 21.0327C61.0229 21.2547 61.0767 21.5161 61.0767 21.8169C61.0767 21.9852 61.0552 22.1445 61.0122 22.2949C60.9692 22.4417 60.9066 22.576 60.8242 22.6978C60.7419 22.8195 60.6398 22.9269 60.5181 23.02C60.3999 23.1131 60.2638 23.1883 60.1099 23.2456C60.3068 23.2814 60.4876 23.3441 60.6523 23.4336C60.8206 23.5231 60.9657 23.6395 61.0874 23.7827C61.2127 23.9224 61.3112 24.0871 61.3828 24.2769C61.4544 24.4666 61.4902 24.6797 61.4902 24.916ZM59.6641 21.9888C59.6641 21.8491 59.6426 21.7238 59.5996 21.6128C59.5566 21.5018 59.4922 21.4105 59.4062 21.3389C59.3203 21.2637 59.2111 21.2064 59.0786 21.167C58.9497 21.1276 58.776 21.1079 58.5576 21.1079H57.8433V22.9126H58.6328C58.8369 22.9126 58.9998 22.8893 59.1216 22.8428C59.2433 22.7926 59.3436 22.7264 59.4224 22.644C59.5047 22.5581 59.5656 22.4596 59.605 22.3486C59.6444 22.234 59.6641 22.1141 59.6641 21.9888ZM60.0239 24.9644C60.0239 24.8032 59.9971 24.66 59.9434 24.5347C59.8896 24.4058 59.8109 24.2983 59.707 24.2124C59.6032 24.1265 59.4707 24.0602 59.3096 24.0137C59.1484 23.9671 58.939 23.9438 58.6812 23.9438H57.8433V25.9204H58.8638C59.0607 25.9204 59.2254 25.9007 59.3579 25.8613C59.494 25.8184 59.6104 25.7575 59.707 25.6787C59.8073 25.5964 59.8843 25.4961 59.938 25.3779C59.9953 25.2562 60.0239 25.1183 60.0239 24.9644ZM68.2095 26.4736C68.2524 26.6025 68.2793 26.7046 68.29 26.7798C68.3008 26.855 68.2865 26.9123 68.2471 26.9517C68.2077 26.9875 68.1379 27.009 68.0376 27.0161C67.9373 27.0269 67.7995 27.0322 67.624 27.0322C67.4414 27.0322 67.2982 27.0286 67.1943 27.0215C67.0941 27.0179 67.0171 27.009 66.9634 26.9946C66.9097 26.9767 66.8721 26.9535 66.8506 26.9248C66.8291 26.8962 66.8112 26.8586 66.7969 26.812L66.3296 25.4155H63.7192L63.2788 26.7744C63.2645 26.8245 63.2448 26.8675 63.2197 26.9033C63.1982 26.9355 63.1606 26.9624 63.1069 26.9839C63.0568 27.0018 62.9834 27.0143 62.8867 27.0215C62.7936 27.0286 62.6701 27.0322 62.5161 27.0322C62.3514 27.0322 62.2225 27.0269 62.1294 27.0161C62.0363 27.0054 61.9718 26.9803 61.936 26.9409C61.9002 26.8979 61.8877 26.8389 61.8984 26.7637C61.9092 26.6885 61.936 26.5882 61.979 26.4629L64.1221 20.2969C64.1436 20.236 64.1686 20.1877 64.1973 20.1519C64.2259 20.1125 64.2707 20.0838 64.3315 20.0659C64.396 20.0444 64.4837 20.0319 64.5947 20.0283C64.7057 20.0212 64.8525 20.0176 65.0352 20.0176C65.2464 20.0176 65.4147 20.0212 65.54 20.0283C65.6654 20.0319 65.762 20.0444 65.8301 20.0659C65.9017 20.0838 65.9518 20.1125 65.9805 20.1519C66.0127 20.1912 66.0396 20.245 66.061 20.313L68.2095 26.4736ZM65.019 21.3765H65.0137L64.0308 24.3306H66.002L65.019 21.3765ZM73.3066 24.916C73.3066 25.2812 73.2386 25.6017 73.1025 25.8774C72.9665 26.1532 72.7821 26.3841 72.5493 26.5703C72.3166 26.7529 72.0444 26.8908 71.7329 26.9839C71.4214 27.077 71.0884 27.1235 70.7339 27.1235C70.494 27.1235 70.2702 27.1038 70.0625 27.0645C69.8584 27.0251 69.6776 26.9785 69.52 26.9248C69.3625 26.8675 69.23 26.8084 69.1226 26.7476C69.0187 26.6867 68.9435 26.633 68.897 26.5864C68.8504 26.5399 68.8164 26.4736 68.7949 26.3877C68.777 26.2982 68.7681 26.1711 68.7681 26.0063C68.7681 25.8953 68.7716 25.8022 68.7788 25.7271C68.786 25.6519 68.7967 25.591 68.811 25.5444C68.8289 25.4979 68.8504 25.4657 68.8755 25.4478C68.9041 25.4263 68.9364 25.4155 68.9722 25.4155C69.0223 25.4155 69.0921 25.446 69.1816 25.5068C69.2747 25.5641 69.3929 25.6286 69.5361 25.7002C69.6794 25.7718 69.8494 25.8381 70.0464 25.8989C70.2469 25.9562 70.4779 25.9849 70.7393 25.9849C70.9111 25.9849 71.0651 25.9652 71.2012 25.9258C71.3372 25.8828 71.4518 25.8237 71.5449 25.7485C71.6416 25.6733 71.715 25.5802 71.7651 25.4692C71.8153 25.3582 71.8403 25.2347 71.8403 25.0986C71.8403 24.9411 71.7974 24.8068 71.7114 24.6958C71.6255 24.5812 71.5127 24.481 71.373 24.395C71.237 24.3055 71.0812 24.2231 70.9058 24.1479C70.7303 24.0692 70.5495 23.9868 70.3633 23.9009C70.1771 23.8149 69.9963 23.7183 69.8208 23.6108C69.6453 23.4998 69.4878 23.3691 69.3481 23.2188C69.2121 23.0648 69.1011 22.884 69.0151 22.6763C68.9292 22.4686 68.8862 22.2197 68.8862 21.9297C68.8862 21.5967 68.9471 21.3049 69.0688 21.0542C69.1942 20.8 69.3607 20.5905 69.5684 20.4258C69.7796 20.2575 70.0267 20.1322 70.3096 20.0498C70.596 19.9674 70.8986 19.9263 71.2173 19.9263C71.382 19.9263 71.5467 19.9388 71.7114 19.9639C71.8761 19.9889 72.0301 20.0229 72.1733 20.0659C72.3166 20.1089 72.4437 20.1572 72.5547 20.2109C72.6657 20.2646 72.7391 20.3094 72.7749 20.3452C72.8107 20.381 72.834 20.4115 72.8447 20.4365C72.859 20.4616 72.8698 20.4956 72.877 20.5386C72.8877 20.578 72.8949 20.6299 72.8984 20.6943C72.902 20.7552 72.9038 20.8322 72.9038 20.9253C72.9038 21.0291 72.9002 21.1169 72.8931 21.1885C72.8895 21.2601 72.8805 21.3192 72.8662 21.3657C72.8555 21.4123 72.8376 21.4463 72.8125 21.4678C72.791 21.4893 72.7606 21.5 72.7212 21.5C72.6818 21.5 72.6191 21.4749 72.5332 21.4248C72.4473 21.3747 72.3416 21.321 72.2163 21.2637C72.091 21.2028 71.946 21.1491 71.7812 21.1025C71.6165 21.0524 71.4357 21.0273 71.2388 21.0273C71.0848 21.0273 70.9505 21.047 70.8359 21.0864C70.7214 21.1222 70.6247 21.1742 70.5459 21.2422C70.4707 21.3066 70.4134 21.3854 70.374 21.4785C70.3382 21.5716 70.3203 21.6701 70.3203 21.7739C70.3203 21.9279 70.3615 22.0622 70.4438 22.1768C70.5298 22.2878 70.6426 22.388 70.7822 22.4775C70.9255 22.5635 71.0866 22.6458 71.2656 22.7246C71.4447 22.7998 71.6273 22.8804 71.8135 22.9663C71.9997 23.0522 72.1823 23.1507 72.3613 23.2617C72.5404 23.3691 72.6997 23.4998 72.8394 23.6538C72.979 23.8042 73.0918 23.9832 73.1777 24.1909C73.2637 24.395 73.3066 24.6367 73.3066 24.916ZM78.5059 26.4468C78.5059 26.5506 78.5005 26.6383 78.4897 26.71C78.4826 26.778 78.4701 26.8335 78.4521 26.8765C78.4342 26.9194 78.411 26.9517 78.3823 26.9731C78.3573 26.991 78.3286 27 78.2964 27H74.8052C74.687 27 74.5868 26.966 74.5044 26.8979C74.4256 26.8263 74.3862 26.7118 74.3862 26.5542V20.4956C74.3862 20.3381 74.4256 20.2253 74.5044 20.1572C74.5868 20.0856 74.687 20.0498 74.8052 20.0498H78.2749C78.3071 20.0498 78.3358 20.0588 78.3608 20.0767C78.3859 20.0946 78.4074 20.1268 78.4253 20.1733C78.4432 20.2163 78.4557 20.2736 78.4629 20.3452C78.4736 20.4132 78.479 20.501 78.479 20.6084C78.479 20.7087 78.4736 20.7946 78.4629 20.8662C78.4557 20.9342 78.4432 20.9897 78.4253 21.0327C78.4074 21.0757 78.3859 21.1079 78.3608 21.1294C78.3358 21.1473 78.3071 21.1562 78.2749 21.1562H75.7935V22.8535H77.8936C77.9258 22.8535 77.9544 22.8643 77.9795 22.8857C78.0081 22.9036 78.0314 22.9341 78.0493 22.9771C78.0672 23.0164 78.0798 23.0719 78.0869 23.1436C78.0977 23.2116 78.103 23.2957 78.103 23.396C78.103 23.4998 78.0977 23.5858 78.0869 23.6538C78.0798 23.7218 78.0672 23.7773 78.0493 23.8203C78.0314 23.8597 78.0081 23.8883 77.9795 23.9062C77.9544 23.9242 77.9258 23.9331 77.8936 23.9331H75.7935V25.8936H78.2964C78.3286 25.8936 78.3573 25.9043 78.3823 25.9258C78.411 25.9437 78.4342 25.9741 78.4521 26.0171C78.4701 26.0601 78.4826 26.1174 78.4897 26.189C78.5005 26.257 78.5059 26.3429 78.5059 26.4468ZM17.7212 39.8066C17.7212 39.8424 17.7104 39.8747 17.689 39.9033C17.6711 39.932 17.6353 39.9552 17.5815 39.9731C17.5314 39.991 17.4634 40.0054 17.3774 40.0161C17.2915 40.0269 17.1823 40.0322 17.0498 40.0322C16.9209 40.0322 16.8135 40.0269 16.7275 40.0161C16.6416 40.0054 16.5736 39.991 16.5234 39.9731C16.4733 39.9552 16.4375 39.932 16.416 39.9033C16.3945 39.8747 16.3838 39.8424 16.3838 39.8066V34.1509H16.373L14.3589 39.8013C14.3446 39.8478 14.3213 39.8872 14.2891 39.9194C14.2568 39.9481 14.2121 39.9714 14.1548 39.9893C14.1011 40.0072 14.0312 40.0179 13.9453 40.0215C13.8594 40.0286 13.7555 40.0322 13.6338 40.0322C13.512 40.0322 13.4082 40.0269 13.3223 40.0161C13.2363 40.009 13.1647 39.9964 13.1074 39.9785C13.0537 39.957 13.0107 39.932 12.9785 39.9033C12.9463 39.8747 12.9248 39.8407 12.9141 39.8013L10.9697 34.1509H10.959V39.8066C10.959 39.8424 10.9482 39.8747 10.9268 39.9033C10.9089 39.932 10.873 39.9552 10.8193 39.9731C10.7656 39.991 10.6958 40.0054 10.6099 40.0161C10.5275 40.0269 10.4201 40.0322 10.2876 40.0322C10.1587 40.0322 10.0513 40.0269 9.96533 40.0161C9.87939 40.0054 9.80957 39.991 9.75586 39.9731C9.70573 39.9552 9.66992 39.932 9.64844 39.9033C9.63053 39.8747 9.62158 39.8424 9.62158 39.8066V33.6138C9.62158 33.4312 9.66992 33.2915 9.7666 33.1948C9.86328 33.0981 9.99219 33.0498 10.1533 33.0498H11.0771C11.2419 33.0498 11.3833 33.0641 11.5015 33.0928C11.6196 33.1178 11.7217 33.1626 11.8076 33.2271C11.8936 33.2879 11.9652 33.3703 12.0225 33.4741C12.0798 33.5744 12.1299 33.6997 12.1729 33.8501L13.6768 37.9912H13.6982L15.2559 33.8608C15.3024 33.7104 15.3525 33.5833 15.4062 33.4795C15.4635 33.3757 15.528 33.2915 15.5996 33.2271C15.6748 33.1626 15.7625 33.1178 15.8628 33.0928C15.9631 33.0641 16.0794 33.0498 16.2119 33.0498H17.1626C17.2593 33.0498 17.3416 33.0623 17.4097 33.0874C17.4813 33.1125 17.5386 33.1501 17.5815 33.2002C17.6281 33.2467 17.6621 33.3058 17.6836 33.3774C17.7087 33.4455 17.7212 33.5243 17.7212 33.6138V39.8066ZM24.9292 39.4736C24.9722 39.6025 24.999 39.7046 25.0098 39.7798C25.0205 39.855 25.0062 39.9123 24.9668 39.9517C24.9274 39.9875 24.8576 40.009 24.7573 40.0161C24.6571 40.0269 24.5192 40.0322 24.3438 40.0322C24.1611 40.0322 24.0179 40.0286 23.9141 40.0215C23.8138 40.0179 23.7368 40.009 23.6831 39.9946C23.6294 39.9767 23.5918 39.9535 23.5703 39.9248C23.5488 39.8962 23.5309 39.8586 23.5166 39.812L23.0493 38.4155H20.439L19.9985 39.7744C19.9842 39.8245 19.9645 39.8675 19.9395 39.9033C19.918 39.9355 19.8804 39.9624 19.8267 39.9839C19.7765 40.0018 19.7031 40.0143 19.6064 40.0215C19.5133 40.0286 19.3898 40.0322 19.2358 40.0322C19.0711 40.0322 18.9422 40.0269 18.8491 40.0161C18.756 40.0054 18.6916 39.9803 18.6558 39.9409C18.62 39.8979 18.6074 39.8389 18.6182 39.7637C18.6289 39.6885 18.6558 39.5882 18.6987 39.4629L20.8418 33.2969C20.8633 33.236 20.8883 33.1877 20.917 33.1519C20.9456 33.1125 20.9904 33.0838 21.0513 33.0659C21.1157 33.0444 21.2035 33.0319 21.3145 33.0283C21.4255 33.0212 21.5723 33.0176 21.7549 33.0176C21.9661 33.0176 22.1344 33.0212 22.2598 33.0283C22.3851 33.0319 22.4818 33.0444 22.5498 33.0659C22.6214 33.0838 22.6715 33.1125 22.7002 33.1519C22.7324 33.1912 22.7593 33.245 22.7808 33.313L24.9292 39.4736ZM21.7388 34.3765H21.7334L20.7505 37.3306H22.7217L21.7388 34.3765ZM31.6377 39.5059C31.6377 39.5882 31.6234 39.6616 31.5947 39.7261C31.5661 39.7905 31.5267 39.8442 31.4766 39.8872C31.43 39.9302 31.3727 39.9624 31.3047 39.9839C31.2402 40.0018 31.174 40.0107 31.106 40.0107H30.5044C30.3791 40.0107 30.2699 39.9982 30.1768 39.9731C30.0872 39.9481 30.0031 39.9033 29.9243 39.8389C29.8491 39.7708 29.7757 39.6813 29.7041 39.5703C29.6325 39.4557 29.5519 39.3089 29.4624 39.1299L27.7329 35.8804C27.6326 35.687 27.5306 35.4793 27.4268 35.2573C27.3229 35.0317 27.2298 34.8133 27.1475 34.6021H27.1367C27.151 34.8599 27.1618 35.1177 27.1689 35.3755C27.1761 35.6297 27.1797 35.8929 27.1797 36.165V39.8013C27.1797 39.8371 27.1689 39.8693 27.1475 39.8979C27.1296 39.9266 27.0955 39.9517 27.0454 39.9731C26.9989 39.991 26.9344 40.0054 26.8521 40.0161C26.7697 40.0269 26.6641 40.0322 26.5352 40.0322C26.4098 40.0322 26.306 40.0269 26.2236 40.0161C26.1413 40.0054 26.0768 39.991 26.0303 39.9731C25.9837 39.9517 25.9515 39.9266 25.9336 39.8979C25.9157 39.8693 25.9067 39.8371 25.9067 39.8013V33.5547C25.9067 33.3864 25.9551 33.2611 26.0518 33.1787C26.152 33.0928 26.2738 33.0498 26.417 33.0498H27.1743C27.3104 33.0498 27.425 33.0623 27.5181 33.0874C27.6112 33.1089 27.6935 33.1465 27.7651 33.2002C27.8403 33.2539 27.9102 33.3291 27.9746 33.4258C28.0391 33.5189 28.1053 33.6353 28.1733 33.7749L29.5269 36.3154C29.6056 36.4694 29.6826 36.6216 29.7578 36.772C29.8366 36.9188 29.9118 37.0674 29.9834 37.2178C30.055 37.3646 30.1248 37.5096 30.1929 37.6528C30.2609 37.7961 30.3271 37.9393 30.3916 38.0825H30.397C30.3862 37.8319 30.3773 37.5705 30.3701 37.2983C30.3665 37.0262 30.3647 36.7666 30.3647 36.5195V33.2593C30.3647 33.2235 30.3755 33.1912 30.397 33.1626C30.4185 33.134 30.4543 33.1089 30.5044 33.0874C30.5545 33.0659 30.6208 33.0516 30.7031 33.0444C30.7855 33.0337 30.8911 33.0283 31.02 33.0283C31.1418 33.0283 31.2438 33.0337 31.3262 33.0444C31.4085 33.0516 31.4712 33.0659 31.5142 33.0874C31.5607 33.1089 31.5929 33.134 31.6108 33.1626C31.6287 33.1912 31.6377 33.2235 31.6377 33.2593V39.5059ZM38.8511 39.4736C38.894 39.6025 38.9209 39.7046 38.9316 39.7798C38.9424 39.855 38.9281 39.9123 38.8887 39.9517C38.8493 39.9875 38.7795 40.009 38.6792 40.0161C38.5789 40.0269 38.4411 40.0322 38.2656 40.0322C38.083 40.0322 37.9398 40.0286 37.8359 40.0215C37.7357 40.0179 37.6587 40.009 37.605 39.9946C37.5513 39.9767 37.5137 39.9535 37.4922 39.9248C37.4707 39.8962 37.4528 39.8586 37.4385 39.812L36.9712 38.4155H34.3608L33.9204 39.7744C33.9061 39.8245 33.8864 39.8675 33.8613 39.9033C33.8398 39.9355 33.8022 39.9624 33.7485 39.9839C33.6984 40.0018 33.625 40.0143 33.5283 40.0215C33.4352 40.0286 33.3117 40.0322 33.1577 40.0322C32.993 40.0322 32.8641 40.0269 32.771 40.0161C32.6779 40.0054 32.6134 39.9803 32.5776 39.9409C32.5418 39.8979 32.5293 39.8389 32.54 39.7637C32.5508 39.6885 32.5776 39.5882 32.6206 39.4629L34.7637 33.2969C34.7852 33.236 34.8102 33.1877 34.8389 33.1519C34.8675 33.1125 34.9123 33.0838 34.9731 33.0659C35.0376 33.0444 35.1253 33.0319 35.2363 33.0283C35.3473 33.0212 35.4941 33.0176 35.6768 33.0176C35.888 33.0176 36.0563 33.0212 36.1816 33.0283C36.307 33.0319 36.4036 33.0444 36.4717 33.0659C36.5433 33.0838 36.5934 33.1125 36.6221 33.1519C36.6543 33.1912 36.6812 33.245 36.7026 33.313L38.8511 39.4736ZM35.6606 34.3765H35.6553L34.6724 37.3306H36.6436L35.6606 34.3765ZM45.2642 34.1294C45.2642 34.2332 45.2588 34.3228 45.248 34.3979C45.2409 34.4731 45.2284 34.534 45.2104 34.5806C45.1961 34.6235 45.1764 34.654 45.1514 34.6719C45.1299 34.6898 45.103 34.6987 45.0708 34.6987C45.0243 34.6987 44.9491 34.6665 44.8452 34.6021C44.7414 34.5376 44.6035 34.4678 44.4316 34.3926C44.2598 34.3174 44.0539 34.2476 43.814 34.1831C43.5776 34.1187 43.3019 34.0864 42.9868 34.0864C42.6502 34.0864 42.3459 34.1455 42.0737 34.2637C41.8016 34.3783 41.5688 34.543 41.3755 34.7578C41.1821 34.9691 41.0335 35.2251 40.9297 35.5259C40.8258 35.8231 40.7739 36.1525 40.7739 36.5142C40.7739 36.9116 40.8258 37.2625 40.9297 37.5669C41.0371 37.8677 41.1857 38.1201 41.3755 38.3242C41.5653 38.5283 41.7926 38.6823 42.0576 38.7861C42.3262 38.89 42.6216 38.9419 42.9438 38.9419C43.1014 38.9419 43.2572 38.924 43.4111 38.8882C43.5651 38.8524 43.7083 38.7987 43.8408 38.7271V37.1157H42.5249C42.4604 37.1157 42.4103 37.0763 42.3745 36.9976C42.3387 36.9152 42.3208 36.7773 42.3208 36.584C42.3208 36.4837 42.3244 36.3996 42.3315 36.3315C42.3423 36.2635 42.3566 36.2098 42.3745 36.1704C42.3924 36.1274 42.4139 36.097 42.439 36.0791C42.464 36.0576 42.4927 36.0469 42.5249 36.0469H44.8721C44.9294 36.0469 44.9795 36.0576 45.0225 36.0791C45.069 36.097 45.1084 36.1257 45.1406 36.165C45.1764 36.2044 45.2033 36.2528 45.2212 36.3101C45.2391 36.3638 45.248 36.4264 45.248 36.498V39.2642C45.248 39.3716 45.2284 39.4665 45.189 39.5488C45.1532 39.6276 45.0762 39.6903 44.958 39.7368C44.8434 39.7834 44.7002 39.8317 44.5283 39.8818C44.3564 39.932 44.1774 39.9749 43.9912 40.0107C43.8086 40.0465 43.6224 40.0734 43.4326 40.0913C43.2464 40.1092 43.0584 40.1182 42.8687 40.1182C42.3136 40.1182 41.8159 40.0394 41.3755 39.8818C40.9386 39.7207 40.568 39.4897 40.2637 39.189C39.9593 38.8846 39.7266 38.5158 39.5654 38.0825C39.4043 37.6457 39.3237 37.1515 39.3237 36.6001C39.3237 36.0308 39.4097 35.5205 39.5815 35.0693C39.7534 34.6146 39.9969 34.2297 40.312 33.9146C40.6271 33.5959 41.0067 33.3524 41.4507 33.1841C41.8983 33.0158 42.396 32.9316 42.9438 32.9316C43.2446 32.9316 43.5186 32.9531 43.7656 32.9961C44.0127 33.0355 44.2275 33.0856 44.4102 33.1465C44.5964 33.2038 44.7503 33.2664 44.8721 33.3345C44.9938 33.4025 45.078 33.4616 45.1245 33.5117C45.1746 33.5618 45.2104 33.6335 45.2319 33.7266C45.2534 33.8161 45.2642 33.9504 45.2642 34.1294ZM50.8232 39.4468C50.8232 39.5506 50.8179 39.6383 50.8071 39.71C50.8 39.778 50.7874 39.8335 50.7695 39.8765C50.7516 39.9194 50.7284 39.9517 50.6997 39.9731C50.6746 39.991 50.646 40 50.6138 40H47.1226C47.0044 40 46.9041 39.966 46.8218 39.8979C46.743 39.8263 46.7036 39.7118 46.7036 39.5542V33.4956C46.7036 33.3381 46.743 33.2253 46.8218 33.1572C46.9041 33.0856 47.0044 33.0498 47.1226 33.0498H50.5923C50.6245 33.0498 50.6532 33.0588 50.6782 33.0767C50.7033 33.0946 50.7248 33.1268 50.7427 33.1733C50.7606 33.2163 50.7731 33.2736 50.7803 33.3452C50.791 33.4132 50.7964 33.501 50.7964 33.6084C50.7964 33.7087 50.791 33.7946 50.7803 33.8662C50.7731 33.9342 50.7606 33.9897 50.7427 34.0327C50.7248 34.0757 50.7033 34.1079 50.6782 34.1294C50.6532 34.1473 50.6245 34.1562 50.5923 34.1562H48.1108V35.8535H50.2109C50.2432 35.8535 50.2718 35.8643 50.2969 35.8857C50.3255 35.9036 50.3488 35.9341 50.3667 35.9771C50.3846 36.0164 50.3971 36.0719 50.4043 36.1436C50.415 36.2116 50.4204 36.2957 50.4204 36.396C50.4204 36.4998 50.415 36.5858 50.4043 36.6538C50.3971 36.7218 50.3846 36.7773 50.3667 36.8203C50.3488 36.8597 50.3255 36.8883 50.2969 36.9062C50.2718 36.9242 50.2432 36.9331 50.2109 36.9331H48.1108V38.8936H50.6138C50.646 38.8936 50.6746 38.9043 50.6997 38.9258C50.7284 38.9437 50.7516 38.9741 50.7695 39.0171C50.7874 39.0601 50.8 39.1174 50.8071 39.189C50.8179 39.257 50.8232 39.3429 50.8232 39.4468ZM60.1743 39.8066C60.1743 39.8424 60.1636 39.8747 60.1421 39.9033C60.1242 39.932 60.0884 39.9552 60.0347 39.9731C59.9845 39.991 59.9165 40.0054 59.8306 40.0161C59.7446 40.0269 59.6354 40.0322 59.5029 40.0322C59.374 40.0322 59.2666 40.0269 59.1807 40.0161C59.0947 40.0054 59.0267 39.991 58.9766 39.9731C58.9264 39.9552 58.8906 39.932 58.8691 39.9033C58.8477 39.8747 58.8369 39.8424 58.8369 39.8066V34.1509H58.8262L56.812 39.8013C56.7977 39.8478 56.7744 39.8872 56.7422 39.9194C56.71 39.9481 56.6652 39.9714 56.6079 39.9893C56.5542 40.0072 56.4844 40.0179 56.3984 40.0215C56.3125 40.0286 56.2087 40.0322 56.0869 40.0322C55.9652 40.0322 55.8613 40.0269 55.7754 40.0161C55.6895 40.009 55.6178 39.9964 55.5605 39.9785C55.5068 39.957 55.4639 39.932 55.4316 39.9033C55.3994 39.8747 55.3779 39.8407 55.3672 39.8013L53.4229 34.1509H53.4121V39.8066C53.4121 39.8424 53.4014 39.8747 53.3799 39.9033C53.362 39.932 53.3262 39.9552 53.2725 39.9731C53.2188 39.991 53.1489 40.0054 53.063 40.0161C52.9806 40.0269 52.8732 40.0322 52.7407 40.0322C52.6118 40.0322 52.5044 40.0269 52.4185 40.0161C52.3325 40.0054 52.2627 39.991 52.209 39.9731C52.1589 39.9552 52.123 39.932 52.1016 39.9033C52.0837 39.8747 52.0747 39.8424 52.0747 39.8066V33.6138C52.0747 33.4312 52.123 33.2915 52.2197 33.1948C52.3164 33.0981 52.4453 33.0498 52.6064 33.0498H53.5303C53.695 33.0498 53.8364 33.0641 53.9546 33.0928C54.0728 33.1178 54.1748 33.1626 54.2607 33.2271C54.3467 33.2879 54.4183 33.3703 54.4756 33.4741C54.5329 33.5744 54.583 33.6997 54.626 33.8501L56.1299 37.9912H56.1514L57.709 33.8608C57.7555 33.7104 57.8057 33.5833 57.8594 33.4795C57.9167 33.3757 57.9811 33.2915 58.0527 33.2271C58.1279 33.1626 58.2157 33.1178 58.3159 33.0928C58.4162 33.0641 58.5326 33.0498 58.665 33.0498H59.6157C59.7124 33.0498 59.7948 33.0623 59.8628 33.0874C59.9344 33.1125 59.9917 33.1501 60.0347 33.2002C60.0812 33.2467 60.1152 33.3058 60.1367 33.3774C60.1618 33.4455 60.1743 33.5243 60.1743 33.6138V39.8066ZM65.8086 39.4468C65.8086 39.5506 65.8032 39.6383 65.7925 39.71C65.7853 39.778 65.7728 39.8335 65.7549 39.8765C65.737 39.9194 65.7137 39.9517 65.6851 39.9731C65.66 39.991 65.6313 40 65.5991 40H62.1079C61.9897 40 61.8895 39.966 61.8071 39.8979C61.7284 39.8263 61.689 39.7118 61.689 39.5542V33.4956C61.689 33.3381 61.7284 33.2253 61.8071 33.1572C61.8895 33.0856 61.9897 33.0498 62.1079 33.0498H65.5776C65.6099 33.0498 65.6385 33.0588 65.6636 33.0767C65.6886 33.0946 65.7101 33.1268 65.728 33.1733C65.7459 33.2163 65.7585 33.2736 65.7656 33.3452C65.7764 33.4132 65.7817 33.501 65.7817 33.6084C65.7817 33.7087 65.7764 33.7946 65.7656 33.8662C65.7585 33.9342 65.7459 33.9897 65.728 34.0327C65.7101 34.0757 65.6886 34.1079 65.6636 34.1294C65.6385 34.1473 65.6099 34.1562 65.5776 34.1562H63.0962V35.8535H65.1963C65.2285 35.8535 65.2572 35.8643 65.2822 35.8857C65.3109 35.9036 65.3341 35.9341 65.3521 35.9771C65.37 36.0164 65.3825 36.0719 65.3896 36.1436C65.4004 36.2116 65.4058 36.2957 65.4058 36.396C65.4058 36.4998 65.4004 36.5858 65.3896 36.6538C65.3825 36.7218 65.37 36.7773 65.3521 36.8203C65.3341 36.8597 65.3109 36.8883 65.2822 36.9062C65.2572 36.9242 65.2285 36.9331 65.1963 36.9331H63.0962V38.8936H65.5991C65.6313 38.8936 65.66 38.9043 65.6851 38.9258C65.7137 38.9437 65.737 38.9741 65.7549 39.0171C65.7728 39.0601 65.7853 39.1174 65.7925 39.189C65.8032 39.257 65.8086 39.3429 65.8086 39.4468ZM72.791 39.5059C72.791 39.5882 72.7767 39.6616 72.748 39.7261C72.7194 39.7905 72.68 39.8442 72.6299 39.8872C72.5833 39.9302 72.526 39.9624 72.458 39.9839C72.3936 40.0018 72.3273 40.0107 72.2593 40.0107H71.6577C71.5324 40.0107 71.4232 39.9982 71.3301 39.9731C71.2406 39.9481 71.1564 39.9033 71.0776 39.8389C71.0024 39.7708 70.929 39.6813 70.8574 39.5703C70.7858 39.4557 70.7052 39.3089 70.6157 39.1299L68.8862 35.8804C68.786 35.687 68.6839 35.4793 68.5801 35.2573C68.4762 35.0317 68.3831 34.8133 68.3008 34.6021H68.29C68.3044 34.8599 68.3151 35.1177 68.3223 35.3755C68.3294 35.6297 68.333 35.8929 68.333 36.165V39.8013C68.333 39.8371 68.3223 39.8693 68.3008 39.8979C68.2829 39.9266 68.2489 39.9517 68.1987 39.9731C68.1522 39.991 68.0877 40.0054 68.0054 40.0161C67.923 40.0269 67.8174 40.0322 67.6885 40.0322C67.5632 40.0322 67.4593 40.0269 67.377 40.0161C67.2946 40.0054 67.2301 39.991 67.1836 39.9731C67.137 39.9517 67.1048 39.9266 67.0869 39.8979C67.069 39.8693 67.0601 39.8371 67.0601 39.8013V33.5547C67.0601 33.3864 67.1084 33.2611 67.2051 33.1787C67.3053 33.0928 67.4271 33.0498 67.5703 33.0498H68.3276C68.4637 33.0498 68.5783 33.0623 68.6714 33.0874C68.7645 33.1089 68.8468 33.1465 68.9185 33.2002C68.9937 33.2539 69.0635 33.3291 69.1279 33.4258C69.1924 33.5189 69.2586 33.6353 69.3267 33.7749L70.6802 36.3154C70.759 36.4694 70.8359 36.6216 70.9111 36.772C70.9899 36.9188 71.0651 37.0674 71.1367 37.2178C71.2083 37.3646 71.2782 37.5096 71.3462 37.6528C71.4142 37.7961 71.4805 37.9393 71.5449 38.0825H71.5503C71.5396 37.8319 71.5306 37.5705 71.5234 37.2983C71.5199 37.0262 71.5181 36.7666 71.5181 36.5195V33.2593C71.5181 33.2235 71.5288 33.1912 71.5503 33.1626C71.5718 33.134 71.6076 33.1089 71.6577 33.0874C71.7078 33.0659 71.7741 33.0516 71.8564 33.0444C71.9388 33.0337 72.0444 33.0283 72.1733 33.0283C72.2951 33.0283 72.3971 33.0337 72.4795 33.0444C72.5618 33.0516 72.6245 33.0659 72.6675 33.0874C72.714 33.1089 72.7463 33.134 72.7642 33.1626C72.7821 33.1912 72.791 33.2235 72.791 33.2593V39.5059ZM78.9355 33.6299C78.9355 33.7337 78.9302 33.8232 78.9194 33.8984C78.9123 33.9701 78.8997 34.0291 78.8818 34.0757C78.8639 34.1187 78.8407 34.1509 78.812 34.1724C78.7869 34.1938 78.7583 34.2046 78.7261 34.2046H76.9858V39.8066C76.9858 39.8424 76.9733 39.8747 76.9482 39.9033C76.9268 39.932 76.8892 39.9552 76.8354 39.9731C76.7817 39.991 76.7083 40.0054 76.6152 40.0161C76.5257 40.0269 76.4129 40.0322 76.2769 40.0322C76.1408 40.0322 76.0262 40.0269 75.9331 40.0161C75.8436 40.0054 75.772 39.991 75.7183 39.9731C75.6646 39.9552 75.6252 39.932 75.6001 39.9033C75.5786 39.8747 75.5679 39.8424 75.5679 39.8066V34.2046H73.8276C73.7918 34.2046 73.7614 34.1938 73.7363 34.1724C73.7113 34.1509 73.6898 34.1187 73.6719 34.0757C73.654 34.0291 73.6396 33.9701 73.6289 33.8984C73.6217 33.8232 73.6182 33.7337 73.6182 33.6299C73.6182 33.5225 73.6217 33.4312 73.6289 33.356C73.6396 33.2808 73.654 33.2217 73.6719 33.1787C73.6898 33.1322 73.7113 33.0999 73.7363 33.082C73.7614 33.0605 73.7918 33.0498 73.8276 33.0498H78.7261C78.7583 33.0498 78.7869 33.0605 78.812 33.082C78.8407 33.0999 78.8639 33.1322 78.8818 33.1787C78.8997 33.2217 78.9123 33.2808 78.9194 33.356C78.9302 33.4312 78.9355 33.5225 78.9355 33.6299Z" fill="white"/>
</svg>
